<?xml version="1.0" encoding="UTF-8"?>
<svg version="1.1" xmlns="http://www.w3.org/2000/svg" width="214" height="105">
<path d="M0 0 C5.07073429 1.374631 7.83024006 4.2659849 11.47265625 7.94140625 C12.20742187 8.65796387 12.9421875 9.37452148 13.69921875 10.11279297 C15.97757502 12.34857686 18.22818057 14.60914618 20.47265625 16.87890625 C21.24738281 17.65814453 22.02210938 18.43738281 22.8203125 19.24023438 C24.70676382 21.13833045 26.5908187 23.03873774 28.47265625 24.94140625 C27.47265625 26.94140625 27.47265625 26.94140625 24.47265625 29.44140625 C20.34993857 32.88127214 16.90538648 36.82006972 13.390625 40.8671875 C11.47265625 42.94140625 11.47265625 42.94140625 9.47265625 43.94140625 C9.80265625 38.00140625 10.13265625 32.06140625 10.47265625 25.94140625 C5.85265625 25.94140625 1.23265625 25.94140625 -3.52734375 25.94140625 C-3.03234375 31.88140625 -3.03234375 31.88140625 -2.52734375 37.94140625 C-3.22859375 37.19890625 -3.92984375 36.45640625 -4.65234375 35.69140625 C-9.88905812 30.68237511 -14.18716017 28.36258612 -21.40234375 27.69140625 C-22.43488281 27.57539062 -22.43488281 27.57539062 -23.48828125 27.45703125 C-25.1664124 27.27057223 -26.84672363 27.10390896 -28.52734375 26.94140625 C-28.83414063 27.88242187 -29.1409375 28.8234375 -29.45703125 29.79296875 C-30.32121376 32.33505306 -31.2593791 34.58661476 -32.52734375 36.94140625 C-35.32440495 35.83953365 -37.98023305 34.70590381 -40.65234375 33.31640625 C-45.43373336 31.26124756 -50.42193562 31.32781328 -55.52734375 31.94140625 C-58.61731208 33.23402994 -58.61731208 33.23402994 -60.52734375 34.94140625 C-60.66175153 37.3706049 -60.66175153 37.3706049 -59.52734375 39.94140625 C-56.99026807 41.37540555 -54.32864649 42.17221737 -51.52734375 42.94140625 C-50.45806641 43.27205078 -50.45806641 43.27205078 -49.3671875 43.609375 C-48.76003906 43.71894531 -48.15289062 43.82851563 -47.52734375 43.94140625 C-45.88140236 42.54551871 -45.88140236 42.54551871 -44.52734375 40.94140625 C-43.86734375 40.94140625 -43.20734375 40.94140625 -42.52734375 40.94140625 C-42.46546875 42.19953125 -42.40359375 43.45765625 -42.33984375 44.75390625 C-42.12469844 46.95910016 -42.12469844 46.95910016 -41.52734375 48.94140625 C-39.22254087 50.6411265 -39.22254087 50.6411265 -36.52734375 51.94140625 C-32.36145583 57.49592348 -30.80241412 61.99526232 -31.52734375 68.94140625 C-33.50531011 74.35478787 -36.23439613 77.39451755 -41.46484375 79.8515625 C-51.76797664 83.80722959 -62.2144356 82.18028279 -72.52734375 78.94140625 C-75.07433627 77.77455746 -77.19723185 76.51287707 -79.52734375 74.94140625 C-79.52734375 74.28140625 -79.52734375 73.62140625 -79.52734375 72.94140625 C-81.17734375 72.28140625 -82.82734375 71.62140625 -84.52734375 70.94140625 C-84.56976098 68.6084585 -84.56827312 66.27438058 -84.52734375 63.94140625 C-83.52734375 62.94140625 -83.52734375 62.94140625 -80.96484375 62.87890625 C-80.16046875 62.89953125 -79.35609375 62.92015625 -78.52734375 62.94140625 C-77.86734375 64.59140625 -77.20734375 66.24140625 -76.52734375 67.94140625 C-75.86734375 66.62140625 -75.20734375 65.30140625 -74.52734375 63.94140625 C-73.86734375 64.20953125 -73.20734375 64.47765625 -72.52734375 64.75390625 C-71.53734375 65.14578125 -70.54734375 65.53765625 -69.52734375 65.94140625 C-68.37234375 66.47765625 -67.21734375 67.01390625 -66.02734375 67.56640625 C-60.09141198 69.79804472 -52.03398377 70.43688508 -46.13671875 67.921875 C-45.605625 67.59832031 -45.07453125 67.27476563 -44.52734375 66.94140625 C-46.17734375 65.29140625 -47.82734375 63.64140625 -49.52734375 61.94140625 C-50.51734375 62.43640625 -50.51734375 62.43640625 -51.52734375 62.94140625 C-55.72042457 63.22094497 -58.87586255 63.09484388 -62.52734375 60.94140625 C-65.97805147 57.16992851 -67.60456528 53.95077506 -68.52734375 48.94140625 C-69.18734375 48.21953125 -69.84734375 47.49765625 -70.52734375 46.75390625 C-73.4354284 42.66441221 -73.82979983 38.90168604 -73.52734375 33.94140625 C-72.08209126 28.46465998 -69.12276516 24.89617883 -64.37109375 21.90625 C-56.35378734 17.71075279 -47.29609789 18.11861111 -38.7109375 20.23046875 C-35.0864316 21.41054044 -31.87029537 23.11797809 -28.52734375 24.94140625 C-24.22801333 21.33025846 -20.13604222 17.61769457 -16.2734375 13.5390625 C-15.56380859 12.79462891 -14.85417969 12.05019531 -14.12304688 11.28320312 C-12.66870524 9.74726042 -11.22616392 8.20006835 -9.79492188 6.64257812 C-6.59072143 3.31592416 -4.52190955 1.20684408 0 0 Z " fill="#FBFBFB" transform="translate(134.52734375,-0.94140625)"/>
<path d="M0 0 C8.39740743 1.91519819 15.14255705 11.24532543 21.05859375 17.17578125 C21.93274429 18.04897507 22.80689484 18.92216888 23.70753479 19.82182312 C25.53989427 21.65350616 27.37100784 23.48643635 29.20092773 25.32055664 C31.07773402 27.2009643 32.95580548 29.07996483 34.83666992 30.95629883 C37.55915351 33.67263205 40.27818323 36.39237311 42.99609375 39.11328125 C43.8407872 39.95595047 44.68548065 40.79861969 45.55577087 41.66682434 C46.71817039 42.8339521 46.71817039 42.8339521 47.90405273 44.0246582 C48.93042091 45.05221977 48.93042091 45.05221977 49.9775238 46.10054016 C52.56711792 48.89760496 53.29382045 51.5667601 53.22436523 55.40405273 C51.67800038 61.03108677 46.41107712 65.09842772 42.34375 69.09375 C41.2855711 70.15732312 40.22858175 71.22208096 39.17272949 72.28796387 C36.95929887 74.51316491 34.73210948 76.72331591 32.49414062 78.92382812 C29.63295579 81.73942936 26.8092043 84.58943833 23.99481964 87.45172882 C21.81983936 89.65568136 19.62608258 91.84014536 17.42625427 94.01927185 C16.3774502 95.06275662 15.33450841 96.11216929 14.29774475 97.1676178 C5.17503612 106.41842201 5.17503612 106.41842201 0.015625 106.5402832 C-3.61010919 105.77612076 -5.28588512 105.04113093 -7.9375 102.5 C-8.6078125 101.88511719 -9.278125 101.27023438 -9.96875 100.63671875 C-11.4375 98.8125 -11.4375 98.8125 -11.4375 95.8125 C-9.1315607 92.67590263 -6.33862611 89.97235593 -3.625 87.1875 C-2.54702148 86.00414063 -2.54702148 86.00414063 -1.44726562 84.796875 C3.61992816 79.60021107 7.18389597 77.87090602 14.47924805 77.73681641 C15.16672119 77.76179199 15.85419434 77.78676758 16.5625 77.8125 C15.2425 75.8325 13.9225 73.8525 12.5625 71.8125 C13.19079712 71.21562378 13.19079712 71.21562378 13.83178711 70.60668945 C15.73172842 68.79012288 17.6158231 66.95790678 19.5 65.125 C20.15935547 64.49916016 20.81871094 63.87332031 21.49804688 63.22851562 C24.10398554 60.67603212 26.22084297 58.59393701 27.69140625 55.23046875 C27.32034712 48.27029896 22.08395074 43.96224905 17.375 39.4375 C16.72080078 38.79683594 16.06660156 38.15617187 15.39257812 37.49609375 C13.78919078 35.92781708 12.17921128 34.36701781 10.5625 32.8125 C12.5625 30.8125 14.5625 28.8125 16.5625 26.8125 C15.78648437 26.90273438 15.01046875 26.99296875 14.2109375 27.0859375 C8.24169706 27.27114066 4.16085599 26.68891589 -0.34765625 22.6640625 C-3.42362432 19.64146668 -6.3236996 16.46774737 -9.1315918 13.1953125 C-10.4098491 11.68331621 -10.4098491 11.68331621 -12.4375 10.8125 C-9.93177643 5.18990078 -6.04019817 1.4276832 0 0 Z " fill="#FEFEFE" transform="translate(161.4375,-0.8125)"/>
<path d="M0 0 C0.66 0.33 1.32 0.66 2 1 C1.67 8.92 1.34 16.84 1 25 C5.62 25 10.24 25 15 25 C15 19.39 15 13.78 15 8 C16.32 7.34 17.64 6.68 19 6 C19.56589844 6.85980469 20.13179687 7.71960937 20.71484375 8.60546875 C22.91540826 11.90292406 25.21239362 15.11937746 27.5625 18.3125 C28.32691406 19.36050781 29.09132812 20.40851563 29.87890625 21.48828125 C31.82024615 24.22940489 31.82024615 24.22940489 35 25 C33.89142759 28.32571722 33.10819777 28.97346559 30.46875 31.12890625 C27.38210792 33.74306101 24.54448805 36.44807178 21.78125 39.40234375 C21.07613281 40.14677734 20.37101562 40.89121094 19.64453125 41.65820312 C18.20114012 43.19229916 16.77160146 44.73953445 15.35546875 46.29882812 C9.40042785 52.50970716 9.40042785 52.50970716 4.96875 52.94140625 C-0.30467768 52.34362186 -3.39826988 48.56651768 -7 45 C-8.56751517 43.65254493 -10.14061406 42.31156286 -11.71875 40.9765625 C-25.19284666 28.9466112 -25.19284666 28.9466112 -26.1640625 22.046875 C-26.30981254 17.92096241 -25.82784993 14.03704594 -25 10 C-23.7315625 9.96132813 -23.7315625 9.96132813 -22.4375 9.921875 C-13.86955123 9.49347756 -7.43200204 8.77520224 -1.5 2.25 C-1.005 1.5075 -0.51 0.765 0 0 Z " fill="#FBFBFB" transform="translate(130,53)"/>
<path d="M0 0 C15.24420076 12.70350063 15.24420076 12.70350063 17 18 C17.0530699 22.25738539 15.88978312 24.42657727 13.05859375 27.4296875 C11.86411221 28.59117231 10.65660899 29.73939162 9.4375 30.875 C8.82197266 31.46796875 8.20644531 32.0609375 7.57226562 32.671875 C6.05927745 34.12622022 4.531096 35.5647306 3 37 C-1.17060946 33.01509485 -4.74637494 28.71556888 -8.3125 24.1875 C-8.86228516 23.49462891 -9.41207031 22.80175781 -9.97851562 22.08789062 C-11.32182363 20.39415445 -12.66130687 18.69738603 -14 17 C-12.44048277 13.70029499 -10.77770401 11.59007646 -8.125 9.0625 C-5.17236073 6.19038726 -2.47750972 3.30334629 0 0 Z " fill="#FAFAFA" transform="translate(171,33)"/>
<path d="M0 0 C2.31 0.33 4.62 0.66 7 1 C7.495 2.485 7.495 2.485 8 4 C12.29 4 16.58 4 21 4 C21 3.34 21 2.68 21 2 C21.99 2 22.98 2 24 2 C24 2.66 24 3.32 24 4 C24.66 4 25.32 4 26 4 C26 4.99 26 5.98 26 7 C25.34 7 24.68 7 24 7 C24 7.99 24 8.98 24 10 C24.99 10.33 25.98 10.66 27 11 C27 11.66 27 12.32 27 13 C17.66666667 13 8.33333333 13 -1 13 C-1 11.35 -1 9.7 -1 8 C-1.99 8 -2.98 8 -4 8 C-4 9.65 -4 11.3 -4 13 C-5.79133978 13.05391993 -7.58313899 13.09275571 -9.375 13.125 C-10.37273438 13.14820313 -11.37046875 13.17140625 -12.3984375 13.1953125 C-15 13 -15 13 -17 11 C-17.66 11.66 -18.32 12.32 -19 13 C-22.625 12.625 -22.625 12.625 -26 12 C-25.814375 11.443125 -25.62875 10.88625 -25.4375 10.3125 C-24.83463761 7.94391319 -24.83463761 7.94391319 -25.5625 5.375 C-25.7790625 4.199375 -25.7790625 4.199375 -26 3 C-25.34 2.34 -24.68 1.68 -24 1 C-20.375 1.375 -20.375 1.375 -17 2 C-17.33 3.32 -17.66 4.64 -18 6 C-17.01 5.34 -16.02 4.68 -15 4 C-12.4375 3.875 -12.4375 3.875 -10 4 C-9.34 4 -8.68 4 -8 4 C-5.66666667 4 -3.33333333 4 -1 4 C-0.67 2.68 -0.34 1.36 0 0 Z M11 6 C10.67 7.32 10.34 8.64 10 10 C10.33 9.34 10.66 8.68 11 8 C11.66 7.67 12.32 7.34 13 7 C12.34 6.67 11.68 6.34 11 6 Z M-10 9 C-9.34 9.66 -8.68 10.32 -8 11 C-8 10.34 -8 9.68 -8 9 C-8.66 9 -9.32 9 -10 9 Z " fill="#F7F7F7" transform="translate(31,22)"/>
<path d="M0 0 C2.475 0.495 2.475 0.495 5 1 C7.72502965 0.62277985 7.72502965 0.62277985 10 0 C9.67 0.598125 9.34 1.19625 9 1.8125 C7.79212012 4.05386471 7.79212012 4.05386471 8 7 C8.33 6.67 8.66 6.34 9 6 C9 5.34 9 4.68 9 4 C20.53884271 2.29054182 32.34605441 3 44 3 C44 4.65 44 6.3 44 8 C44.66 8 45.32 8 46 8 C46 6.35 46 4.7 46 3 C46.99 3 47.98 3 49 3 C49 5.97 49 8.94 49 12 C44.33333333 12 39.66666667 12 35 12 C35 12.99 35 13.98 35 15 C33.68 15 32.36 15 31 15 C31 14.01 31 13.02 31 12 C30.01 12 29.02 12 28 12 C28 10.35 28 8.7 28 7 C27.67 8.65 27.34 10.3 27 12 C18 12 9 12 0 12 C0 8.04 0 4.08 0 0 Z M31 5 C31 6.98 31 8.96 31 11 C31.33 11 31.66 11 32 11 C32 9.02 32 7.04 32 5 C31.67 5 31.34 5 31 5 Z " fill="#FBFBFB" transform="translate(0,59)"/>
<path d="M0 0 C1.98 0 3.96 0 6 0 C7.33333333 1.33333333 8.66666667 2.66666667 10 4 C12.65466049 3.76956136 12.65466049 3.76956136 15 3 C15.33 3.33 15.66 3.66 16 4 C16.33 2.68 16.66 1.36 17 0 C18.32 0 19.64 0 21 0 C21.33 0.99 21.66 1.98 22 3 C23.32 3 24.64 3 26 3 C25.814375 3.7425 25.62875 4.485 25.4375 5.25 C25.00796892 7.94990963 25.14877026 9.44631077 26 12 C25.443125 11.814375 24.88625 11.62875 24.3125 11.4375 C21.56487353 10.91767878 19.72428435 11.41622478 17 12 C13.9375 12.3125 13.9375 12.3125 11 12 C8.625 10 8.625 10 7 8 C6.01 8.66 5.02 9.32 4 10 C4 10.66 4 11.32 4 12 C2.68 12 1.36 12 0 12 C0 8.04 0 4.08 0 0 Z M17 5 C18 7 18 7 18 7 Z " fill="#F9F9F9" transform="translate(3,41)"/>
<path d="M0 0 C9.11458333 -0.60763889 9.11458333 -0.60763889 13.1875 2.1875 C15 5 15 5 15 7.625 C13.91770942 10.19544012 13.20936078 11.32011566 11 13 C7.29631297 13.40199208 3.73655831 13.13187853 0 13 C0 8.71 0 4.42 0 0 Z " fill="#FDFDFD" transform="translate(105,38)"/>
<path d="M0 0 C1.32 0 2.64 0 4 0 C4.02685412 2.31243792 4.04632841 4.6249627 4.0625 6.9375 C4.07410156 8.22527344 4.08570312 9.51304688 4.09765625 10.83984375 C4 14 4 14 3 15 C1.33382885 15.04063832 -0.33388095 15.042721 -2 15 C-1.67 14.236875 -1.34 13.47375 -1 12.6875 C0.17436686 10.00930865 0.17436686 10.00930865 0 7 C-0.99 7.495 -0.99 7.495 -2 8 C-2 9.32 -2 10.64 -2 12 C-2.70125 11.814375 -3.4025 11.62875 -4.125 11.4375 C-7.33888698 10.94843024 -9.83560336 11.33768442 -13 12 C-13.99 10.35 -14.98 8.7 -16 7 C-15.01 5.68 -14.02 4.36 -13 3 C-8.125 3.875 -8.125 3.875 -7 5 C-6.67 4.34 -6.34 3.68 -6 3 C-4.02 3 -2.04 3 0 3 C0 2.01 0 1.02 0 0 Z M0 3 C1 6 1 6 1 6 Z " fill="#FBFBFB" transform="translate(44,41)"/>
<path d="M0 0 C2.475 0.495 2.475 0.495 5 1 C7.72502965 0.62277985 7.72502965 0.62277985 10 0 C9.67 0.598125 9.34 1.19625 9 1.8125 C7.79212012 4.05386471 7.79212012 4.05386471 8 7 C8.66 7.33 9.32 7.66 10 8 C10 9.32 10 10.64 10 12 C9.278125 11.814375 8.55625 11.62875 7.8125 11.4375 C4.62543759 10.77633914 4.62543759 10.77633914 0 12 C0 8.04 0 4.08 0 0 Z " fill="#F3F3F3" transform="translate(0,59)"/>
<path d="M0 0 C1.32 0 2.64 0 4 0 C4.33 0.99 4.66 1.98 5 3 C6.32 3 7.64 3 9 3 C8.814375 3.7425 8.62875 4.485 8.4375 5.25 C8.00796892 7.94990963 8.14877026 9.44631077 9 12 C8.443125 11.814375 7.88625 11.62875 7.3125 11.4375 C4.600867 10.92448835 2.65628961 11.3359276 0 12 C-0.93423645 8.98968256 -1.04449911 8.13349732 0 5 C0.03874921 3.33378384 0.0450286 1.66605828 0 0 Z " fill="#F2F2F2" transform="translate(20,41)"/>
<path d="M0 0 C2.625 0.25 2.625 0.25 4.4375 1.625 C5.625 3.25 5.625 3.25 5.625 5.25 C4.635 5.745 4.635 5.745 3.625 6.25 C3.955 6.91 4.285 7.57 4.625 8.25 C2.315 8.58 0.005 8.91 -2.375 9.25 C-3.365 7.93 -4.355 6.61 -5.375 5.25 C-2.9868068 0.31440072 -2.9868068 0.31440072 0 0 Z " fill="#F2F2F2" transform="translate(18.375,25.75)"/>
<path d="M0 0 C1.32 0 2.64 0 4 0 C4.02685412 2.31243792 4.04632841 4.6249627 4.0625 6.9375 C4.07410156 8.22527344 4.08570313 9.51304688 4.09765625 10.83984375 C4 14 4 14 3 15 C1.33382885 15.04063832 -0.33388095 15.042721 -2 15 C-1.67 14.236875 -1.34 13.47375 -1 12.6875 C0.17436686 10.00930865 0.17436686 10.00930865 0 7 C-0.99 6.67 -1.98 6.34 -3 6 C-2.67 5.01 -2.34 4.02 -2 3 C-1.34 3 -0.68 3 0 3 C0 2.01 0 1.02 0 0 Z M0 3 C1 6 1 6 1 6 Z " fill="#F3F3F3" transform="translate(44,41)"/>
<path d="M0 0 C2.375 -0.125 2.375 -0.125 5 0 C7 2 7 2 7.125 5.625 C7.08375 6.73875 7.0425 7.8525 7 9 C4.69 9 2.38 9 0 9 C-0.84454356 5.62182575 -1.10844919 3.32534757 0 0 Z " fill="#F7F7F7" transform="translate(50,44)"/>
<path d="M0 0 C1.65 0 3.3 0 5 0 C7.125 6.75 7.125 6.75 6 9 C4.02 9 2.04 9 0 9 C-1.10844919 5.67465243 -0.84454356 3.37817425 0 0 Z " fill="#F4F4F4" transform="translate(51,62)"/>
<path d="M0 0 C2.97 0.495 2.97 0.495 6 1 C6 1.66 6 2.32 6 3 C5.01 3 4.02 3 3 3 C3.33 4.98 3.66 6.96 4 9 C2.68 9 1.36 9 0 9 C0 6.03 0 3.06 0 0 Z " fill="#FEFEFE" transform="translate(23,26)"/>
</svg>
