<svg width="978" height="816" viewBox="0 0 978 816" fill="none" xmlns="http://www.w3.org/2000/svg">
<path d="M748.658 316.522C755.56 316.522 761.155 310.927 761.155 304.025C761.155 297.123 755.56 291.528 748.658 291.528C741.756 291.528 736.161 297.123 736.161 304.025C736.161 310.927 741.756 316.522 748.658 316.522Z" fill="#F20F10"/>
<path d="M747.166 770.465C763.353 770.465 776.474 757.344 776.474 741.157C776.474 724.971 763.353 711.85 747.166 711.85C730.98 711.85 717.858 724.971 717.858 741.157C717.858 757.344 730.98 770.465 747.166 770.465Z" fill="#F20F10"/>
<path d="M233.168 398.719C240.647 398.719 246.711 392.656 246.711 385.177C246.711 377.697 240.647 371.634 233.168 371.634C225.688 371.634 219.625 377.697 219.625 385.177C219.625 392.656 225.688 398.719 233.168 398.719Z" fill="#F20F10"/>
<path d="M72.3808 612.633C112.189 612.633 144.461 580.361 144.461 540.553C144.461 500.744 112.189 468.473 72.3808 468.473C32.5721 468.473 0.300781 500.744 0.300781 540.553C0.300781 580.361 32.5721 612.633 72.3808 612.633Z" fill="#0D5EF4"/>
<path d="M589.385 259.736C579.737 252.023 578.143 237.801 585.855 228.153L783.245 -18.8584C790.958 -28.5057 805.18 -30.1005 814.828 -22.3879C824.475 -14.6753 826.07 -0.452784 818.357 9.19448L620.967 256.206C613.255 265.854 599.032 267.448 589.385 259.736Z" fill="#0D5EF4" stroke="white" stroke-miterlimit="10"/>
<path d="M767.141 166.819C757.493 159.106 755.899 144.884 763.611 135.236L961.001 -111.775C968.714 -121.423 982.936 -123.017 992.583 -115.305C1002.23 -107.592 1003.83 -93.3698 996.113 -83.7225L798.723 163.289C791.01 172.937 776.788 174.531 767.141 166.819Z" fill="#0D5EF4" stroke="white" stroke-miterlimit="10"/>
<path d="M84.6689 973.217C75.0217 965.505 73.4268 951.282 81.1394 941.635L278.529 694.623C286.242 684.976 300.465 683.381 310.112 691.094C319.759 698.806 321.354 713.029 313.641 722.676L116.251 969.688C108.539 979.335 94.3424 980.93 84.6689 973.217Z" fill="#0D5EF4" stroke="white" stroke-miterlimit="10"/>
<path d="M216.593 948.875C206.945 941.163 205.351 926.94 213.063 917.293L410.453 670.281C418.166 660.634 432.388 659.039 442.036 666.752C451.683 674.464 453.278 688.687 445.565 698.334L248.175 945.346C240.463 954.993 226.266 956.588 216.593 948.875Z" fill="#0D5EF4" stroke="white" stroke-miterlimit="10"/>
<path d="M131.442 274.979C143.412 274.979 153.116 265.276 153.116 253.305C153.116 241.335 143.412 231.632 131.442 231.632C119.472 231.632 109.769 241.335 109.769 253.305C109.769 265.276 119.472 274.979 131.442 274.979Z" fill="#F20F10"/>
</svg>
